<svg xmlns="http://www.w3.org/2000/svg" viewBox="0 0 152.54 300"><defs><style>.cls-1{fill:#e7e5f3;}.cls-2{fill:#d0d1d9;}.cls-3{fill:#c9c9d2;}.cls-4{fill:#9b9caf;}.cls-5{fill:#605e6b;}.cls-6{fill:#afacc6;}.cls-7{fill:#828293;}</style></defs><title>fille</title><g id="R_Elbow"><ellipse class="cls-1" cx="76.27" cy="217.26" rx="19.94" ry="10.67"/><path class="cls-2" d="M96.45,253.22a.86.86,0,0,0,.9-.82v0a.82.82,0,0,0-1.62,0h0l0,.3A.88.88,0,0,0,96.45,253.22Z"/><path class="cls-1" d="M65.31,217.26,63.73,252.1a7.4,7.4,0,0,1-14.77.29l0-.29-3-34.84a9.7,9.7,0,0,1,19.33-1.65c0,.41,0,.81,0,1.21Z"/><path class="cls-1" d="M63.81,252.1a7.06,7.06,0,0,0-14-.1v.1a87.31,87.31,0,0,0-.3,10l.32,10,.32,10c0,2,.15,3.94.26,5.92l-4.89,1.63-.15.06a5.33,5.33,0,0,0,2.89,10.25l9.64-2.19a5.61,5.61,0,0,0,4.34-5.08l0-.62c.23-3.33.55-6.65.69-10l.51-10,.52-10A85,85,0,0,0,63.81,252.1Z"/><path class="cls-2" d="M56.79,251.41a1.1,1.1,0,0,0-1.2,1v0a2.56,2.56,0,0,0,0,.39,1.12,1.12,0,0,0,1,.69,1.14,1.14,0,0,0,1.19-1.08v-.06A1.08,1.08,0,0,0,56.79,251.41Z"/><path class="cls-1" d="M105.18,217.26,103.6,252.1a7.4,7.4,0,0,1-14.76.29l0-.29-3-34.84a9.7,9.7,0,0,1,19.33-1.65,9.81,9.81,0,0,1,0,1.21Z"/><path class="cls-1" d="M107.17,289.16l-4.74-1.45c.15-1.9.29-3.8.37-5.7l.51-10,.51-10a82.9,82.9,0,0,0-.13-10,7.06,7.06,0,0,0-14-.1v.1a87.31,87.31,0,0,0-.3,10l.32,10L90,282c.08,3.32.33,6.64.49,10l0,.63a5.27,5.27,0,0,0,4.24,4.92l9.7,1.94.16,0a5.34,5.34,0,0,0,2.58-10.34Z"/><path class="cls-1" d="M61.14,136.49,35.08,165.2a5.66,5.66,0,0,1-8.51-7.45l25-29.61a6.34,6.34,0,0,1,9.68,8.18Z"/><circle class="cls-3" cx="56.38" cy="132.31" r="0.94"/><path class="cls-1" d="M91.4,136.49l26.06,28.71a5.66,5.66,0,0,0,8.51-7.45l-25-29.61a6.34,6.34,0,1,0-9.68,8.18Z"/><path class="cls-1" d="M151.32,187.09,126,157.75l-.07-.09a5.66,5.66,0,0,0-8.57,7.4l.13.14,26.33,28.49.07.07a5,5,0,0,0,7.46-6.67Z"/><circle class="cls-3" cx="96.16" cy="132.31" r="0.94"/><path class="cls-2" d="M84.12,113.33l2.22,19.94a10.13,10.13,0,1,1-20.14,2.24,11.18,11.18,0,0,1,0-2.24l2.22-19.94a7.9,7.9,0,0,1,15.7,0Z"/><circle class="cls-2" cx="56.33" cy="217.26" r="0.96"/><circle class="cls-2" cx="96.21" cy="217.26" r="0.96"/><path class="cls-4" d="M121.33,206.93c-10.35-33.85-15.92-75.54-22.6-80.31-2.14-1.52-4.39-2.38-13.31-1.56-.1,2.7-4.16,4.87-9.15,4.87s-9-2.17-9.15-4.87c-8.92-.82-11.17,0-13.31,1.56-6.68,4.77-12.25,46.46-22.6,80.31-9.12,29.86-15,33.49-6,40.87,6.23,5.13,24.27,10.27,51.06,10.27s44.83-5.14,51.06-10.27C136.29,240.42,130.45,236.79,121.33,206.93Z"/><path class="cls-4" d="M96.61,24.51S91,7,82.51,5.38,71.64,1.15,64.59.14,34.78,3.57,29.14,10.21,18.47,26.12,15,30.35c-4,5-11.28,27-10.67,34.24S2.91,84.93,22.57,88.76"/><path class="cls-1" d="M123.83,73c0,28-22.67,43.9-50.63,43.9S22.57,101,22.57,73a50.63,50.63,0,0,1,101.26,0Z"/><path class="cls-5" d="M91.17,21.76S73.52,4.24,44.75,22.4s-20.84,49-20.84,49Z"/><path class="cls-6" d="M73.2,48.88S70.63,69.83,91.38,71.44c0,0-5.85-6.85-5.85-22.56,0,0,6.45,17.2,27.4,20.78,0,0,5.71,20-10.44,40.22,0,0,1.78,9.49-.44,13.52,0,0,29-29.81,24.57-60S96.41,18.87,88.76,19.48,59.55,30,56.73,36,68.52,48.28,73.2,48.88Z"/><path class="cls-6" d="M39.41,115.55S23.3,86.34,41.83,70.84,72.64,53.92,71.24,45.26,64.39,28.94,48.48,32.57s-29,23.65-30.21,41S26.52,104.07,39.41,115.55Z"/><path class="cls-7" d="M71.31,47.12a15.5,15.5,0,0,0-.76-4.32A19.68,19.68,0,0,0,69,38.71a12.89,12.89,0,0,0-6.35-5.86l0,0a12.82,12.82,0,0,1,3.77,2.3,13.89,13.89,0,0,1,2.77,3.47,17,17,0,0,1,1.66,4.13c.18.72.32,1.45.43,2.18a7.2,7.2,0,0,1,.07,2.22Z"/><path class="cls-5" d="M58.48,141.88c3.84,4,12.41-8,15.36-12.13-3.82-.57-6.64-2.45-6.72-4.69a41.64,41.64,0,0,0-8.82-.15C57.17,128.25,55,138.2,58.48,141.88Z"/><path class="cls-5" d="M94.06,141.88c-3.84,4-12.41-8-15.36-12.13,3.82-.57,6.64-2.45,6.72-4.69a41.64,41.64,0,0,1,8.82-.15C95.37,128.25,97.58,138.2,94.06,141.88Z"/><path class="cls-1" d="M1.22,187.09l25.35-29.34.07-.09a5.66,5.66,0,0,1,8.57,7.4l-.13.14L8.75,193.69l-.07.07a5,5,0,0,1-7.46-6.67Z"/><path class="cls-3" d="M31.44,160.76a.82.82,0,0,0-1.15.09h0a.82.82,0,0,0,1.23,1.07l0,0A.82.82,0,0,0,31.44,160.76Z"/><path class="cls-2" d="M122.21,162a.87.87,0,0,0,.08-1.19h0a.86.86,0,0,0-1.2-.09.87.87,0,0,0-.09,1.21l0,0A.86.86,0,0,0,122.21,162Z"/></g></svg>